<svg width="48" height="48" viewBox="0 0 48 48" fill="none" xmlns="http://www.w3.org/2000/svg">
<g clip-path="url(#clip0)">
<path d="M1.74001 -0.000117188C0.750014 0.0936329 -0.00373607 0.926133 1.39312e-05 1.91988V46.0799C1.39312e-05 47.1411 0.858764 47.9999 1.92001 47.9999H46.08C47.1413 47.9999 48 47.1411 48 46.0799V1.91988C48 0.858633 47.1413 -0.000117188 46.08 -0.000117188H1.92001C1.86001 -0.00386719 1.80001 -0.00386719 1.74001 -0.000117188ZM3.84001 3.83988H22.08V14.3999H3.84001V3.83988ZM25.92 3.83988H44.16V14.3999H25.92V3.83988ZM3.84001 18.2399H22.08V29.7599H3.84001V18.2399ZM25.92 18.2399H44.16V29.7599H25.92V18.2399ZM3.84001 33.5999H22.08V44.1599H3.84001V33.5999ZM25.92 33.5999H44.16V44.1599H25.92V33.5999Z" fill="#25409E"/>
</g>
<defs>
<clipPath id="clip0">
<rect width="48" height="48" fill="white"/>
</clipPath>
</defs>
</svg>
