<svg enable-background="new 0 0 48 48" height="48" viewBox="0 0 48 48" width="48" xmlns="http://www.w3.org/2000/svg"><path d="m20 38.9c0-.5.2-1 .6-1.4l17.4-17.4v-12.1c0-1.1-.9-2-2-2h-6v18c0 1.1-.9 2-2 2h-18v14c0 1.1.9 2 2 2h8z" fill="#fff"/><path d="m31.9 42h4.1c1.1 0 2-.9 2-2v-4.1z" fill="#fff"/><path d="m8 4h20v20h-20z" fill="#bf360c"/><path d="m30 10h4v2h-4z" fill="#e64a19"/><path d="m30 22h4v2h-4z" fill="#e64a19"/><path d="m30 16h4v2h-4z" fill="#e64a19"/><g fill="#fff"><path d="m18 8c-3.3 0-6 2.7-6 6s2.7 6 6 6 6-2.7 6-6-2.7-6-6-6zm0 10c-2.2 0-4-1.8-4-4s1.8-4 4-4 4 1.8 4 4-1.8 4-4 4z"/><path d="m20 6v4h-4v-4z"/><path d="m20 18v4h-4v-4z"/><path d="m26 16h-4v-4h4z"/><path d="m14 16h-4v-4h4z"/><circle cx="18" cy="14" r="2"/></g><path d="m22 44v-5.1l1.3-1.3 5.1 5.1-1.3 1.3z" fill="#424242"/><path d="m38.4 22.5 2.5-2.5 5.1 5.1-2.5 2.5z" fill="#ef5350"/><path d="m24.5 36.4 12.7-12.7 5 5-12.6 12.7z" fill="#f57c00"/><path d="m24.1 34h-10.1v2h8.1z" fill="#e64a19"/><path d="m30.1 28h-16.1v2h14.1z" fill="#e64a19"/><path d="m38 8v12.1l1.5-1.5c.1-.2.3-.3.5-.4v-10.2c0-2.2-1.8-4-4-4h-6v2h6c1.1 0 2 .9 2 2z" fill="#555"/><path d="m12 42c-1.1 0-2-.9-2-2v-14h-2v14c0 2.2 1.8 4 4 4h8v-2z" fill="#555"/><path d="m38 35.9v4.1c0 1.1-.9 2-2 2h-4.1l-2 2h6.1c2.2 0 4-1.8 4-4v-6.1z" fill="#555"/></svg>