<svg height="48" viewBox="0 0 48 48" width="48" xmlns="http://www.w3.org/2000/svg"><g fill="#fff"><path d="m28 24h-20v-20h20zm-15.66-8a6.13 6.13 0 0 0 3.66 3.66v2.34h4v-2.35a6.05 6.05 0 0 0 3.65-3.65h2.35v-4h-2.35a6.09 6.09 0 0 0 -3.65-3.66v-2.34h-4v2.35a6.09 6.09 0 0 0 -3.66 3.65h-2.34v4zm5.66 2a4 4 0 1 1 4-4 4 4 0 0 1 -4 4zm0-6a2 2 0 1 0 2 2 2 2 0 0 0 -2-2z"/><path d="m30 10h4v2h-4z"/><path d="m30 22h4v2h-4z"/><path d="m30 16h4v2h-4z"/><path d="m22 44v-5.1l1.3-1.3 5.1 5.1-1.3 1.3z"/><path d="m38.4 22.5 2.5-2.5 5.1 5.1-2.5 2.5z"/><path d="m24.5 36.4 12.7-12.7 5 5-12.6 12.7z"/><path d="m24.1 34h-10.1v2h8.1z"/><path d="m30.1 28h-16.1v2h14.1z"/><path d="m38 8v12.1l1.5-1.5a1.76 1.76 0 0 1 .5-.4v-10.2a4 4 0 0 0 -4-4h-6v2h6a2 2 0 0 1 2 2z"/><path d="m12 42a2 2 0 0 1 -2-2v-14h-2v14a4 4 0 0 0 4 4h8v-2z"/><path d="m38 35.9v4.1a2 2 0 0 1 -2 2h-4.1l-2 2h6.1a4 4 0 0 0 4-4v-6.1z"/></g></svg>