<svg height="48" viewBox="0 0 48 48" width="48" xmlns="http://www.w3.org/2000/svg"><g fill="#fff"><path d="m22 44v-5.1l1.3-1.3 5.1 5.1-1.3 1.3z"/><path d="m38.4 22.5 2.5-2.5 5.1 5.1-2.5 2.5z"/><path d="m24.5 36.4 12.7-12.7 5 5-12.6 12.7z"/><circle cx="24" cy="24" r="3"/><path d="m26 8.1v-4.1h-4v4.1a16.13 16.13 0 0 0 -13.9 13.9h-4.1v4h4.1a16 16 0 0 0 11.9 13.5v-.6a2 2 0 0 1 .6-1.4l5.4-5.4v-2.1h-4v5.8a11.89 11.89 0 0 1 -9.8-9.8h5.8v-4h-5.8a11.89 11.89 0 0 1 9.8-9.8v5.8h4v-5.8a11.89 11.89 0 0 1 9.8 9.8h-5.8v4h2.1l7.1-7.1a16.22 16.22 0 0 0 -13.2-10.8z"/></g></svg>