<svg enable-background="new 0 0 48 48" viewBox="0 0 48 48" xmlns="http://www.w3.org/2000/svg"><g fill="#4a148c"><path d="m13 6h8.3v1.7h-8.3z"/><path d="m13 19.2h8.3v1.6h-8.3z"/><path d="m13 24.2v1.6h6.2l1.3-1.6z"/><path d="m11.9 31.7c-3.3 1.8-5.9 3.8-5.9 7.3h2.5c0-2.2 1.9-3.7 4.6-5.1.1-.5.3-.9.6-1.3-.6-.3-1.2-.6-1.8-.9z"/><path d="m17.6 13.1c-4.7-2-9.1-3.8-9.2-7.1h-2.4c.1 5 5.4 7.2 10.7 9.4 3.2 1.3 6.2 2.6 7.8 4.3.8-.5 1.7-.7 2.7-.7-1.8-2.6-5.7-4.3-9.6-5.9z"/><path d="m8.5 22.5c0-2.6 2.8-4.4 6.4-5.9-1-.4-2-.8-3-1.3-3.3 1.7-5.9 3.8-5.9 7.2 0 4.4 4.3 6.6 8.8 8.6l1.6-2c-4.2-1.8-7.9-3.6-7.9-6.6z"/><path d="m22 13.4c3.5-1.7 6.2-3.9 6.3-7.4h-2.5c-.1 2.7-3.1 4.5-6.8 6.1 1 .4 2 .9 3 1.3z"/></g><path d="m26.8 27.9 5.5.7c.9.1 1.9-.2 2.5-.9l.9-1c.5-.6.4-1.4-.2-1.9-.2-.1-.4-.2-.6-.3l-5.5-.7c-.9-.1-1.9.2-2.5.9l-.9 1c-.5.6-.4 1.4.2 1.9.2.1.4.2.6.3z" fill="#fff"/><path d="m32.1 37c-.6.7-1.5 1.1-2.5.9l-13.2-2v2.7l13.2 2c.9.1 1.9-.2 2.5-.9l9-11v-2.7z" fill="#fff"/><path d="m15 38.6c0 .7.5 1.2 1.1 1.3l13.6 2.1c.9.1 1.9-.2 2.5-.9l9.6-11.7c.5-.6.4-1.4-.2-1.9-.2-.1-.4-.2-.6-.3l-.6-.1 1.4-1.7c.5-.6.4-1.4-.2-1.9-.2-.1-.4-.2-.6-.3l-13.5-2.1c-.9-.1-1.9.2-2.5.9l-9.6 11.7c-.2.2-.3.5-.3.8z" fill="#303f9f"/><path d="m26.8 27.9 5.5.7c.9.1 1.9-.2 2.5-.9l.9-1c.5-.6.4-1.4-.2-1.9-.2-.1-.4-.2-.6-.3l-5.5-.7c-.9-.1-1.9.2-2.5.9l-.9 1c-.5.6-.4 1.4.2 1.9.2.1.4.2.6.3z" fill="#fff"/><path d="m32.1 37c-.6.7-1.5 1.1-2.5.9l-13.2-2v2.7l13.2 2c.9.1 1.9-.2 2.5-.9l9-11v-2.7z" fill="#fff"/></svg>