<svg enable-background="new 0 0 48 48" viewBox="0 0 48 48" xmlns="http://www.w3.org/2000/svg"><path d="m25.9 34.5c-.1 0-1.8.6-2.6.7-.3 0-.7.2-.8.5-.1.2-.1.4-.1.6.4 1 1.5 1.1 2.6 1h.3c.3 0 2-.6 3.4-1.1.2-.1.4 0 .5.2s0 .4-.2.5c-.6.2-3 1.1-3.6 1.1-.1 0-.2 0-.3 0-.2 0-.4 0-.7 0-.9 0-2.1-.2-2.6-1.3l-4.9-3.4s-.7-.5-1.3-.4c-.2 0-.4.2-.5.4-.6.9.6 1.7.7 1.7l9.1 5.7s.5.3 1.2.3c.4 0 1.1-.2 1.3-.3l4.7-2c.1 0 .6-.3 1.1-.3s.8.1.8.1l2.2.7v-6.1c-.8-.2-2.4-.7-3-.7-.5.2-4.8 1.4-7.3 2.1z" fill="#fff"/><g fill="#4a148c"><path d="m13 6h8.2v1.6h-8.2z"/><path d="m13 19.2h8.2v1.6h-8.2z"/><path d="m13 24.1h8.2v1.7h-8.2z"/><path d="m13.9 37.3h-.9v1.7h3.5l-2.4-1.5s-.1-.1-.2-.2z"/><path d="m12.5 32.1c-.2-.1-.5-.2-.7-.3-3.2 1.7-5.8 3.7-5.8 7.2h2.5c0-1.9 1.5-3.3 3.6-4.6-.2-.8 0-1.6.4-2.3z"/><path d="m23.7 29c2.7-1.6 4.6-3.6 4.6-6.5 0-5-5.4-7.2-10.6-9.4-4.7-2-9.1-3.8-9.2-7.1h-2.5c.1 5 5.4 7.2 10.7 9.4 4.7 2 9.1 3.8 9.1 7.1 0 2.7-3.1 4.5-6.8 6.1.6.2 1.2.5 1.8.8.6-.3 1.3-.4 1.9-.4.4-.1.7 0 1 0z"/><path d="m16.8 30.4c.5-.2 1.1-.4 1.7-.4h.1c-.3-.1-.6-.3-.9-.4-4.7-2-9.2-3.8-9.2-7.1 0-2.6 2.8-4.4 6.3-5.9-1-.4-2-.8-3-1.3-3.2 1.7-5.8 3.8-5.8 7.2 0 4.1 3.7 6.3 7.9 8.2.3-.2.7-.3 1.1-.4.6-.1 1.2-.1 1.8.1z"/><path d="m22 13.4c3.5-1.7 6.2-3.9 6.3-7.4h-2.5c-.1 2.7-3.1 4.5-6.8 6.1 1 .4 2 .9 3 1.3z"/></g><path d="m36 31h6v11h-6z" fill="#303f9f"/><path d="m25.7 33.8c.1 0 .2-.1.4-.1l-2.5-1.7s-.7-.4-1.5-.1l2.9 2.1c.4-.2.6-.2.7-.2z" fill="#fff"/><path d="m21.8 35.3c.1-.1.2-.3.3-.4l-2.6-1.9s-.8-.5-1.8.1l3.9 2.6c0-.1.1-.3.2-.4z" fill="#fff"/><path d="m23.2 34.4c.2 0 .5-.1.9-.2l-2.5-1.8s-.7-.4-1.5-.1l2.9 2.1c0 .1.1 0 .2 0z" fill="#fff"/><path d="m34 38.7s-.3-.1-.8-.1-1.1.2-1.1.3l-4.7 2c-.2.1-.9.3-1.3.3-.7 0-1.2-.3-1.2-.3l-9.1-5.7c-.1 0-1.3-.8-.7-1.7.1-.2.3-.3.5-.4.6-.1 1.3.4 1.3.4l4.9 3.4c.6 1.1 1.8 1.3 2.6 1.3h.7.3c.6 0 3-.9 3.7-1.2.2-.1.3-.3.2-.5s-.3-.3-.5-.2c-1.4.5-3.1 1.1-3.4 1.1-.1 0-.2 0-.3 0-1.2.1-2.3 0-2.6-1-.1-.2 0-.4.1-.6s.5-.4.8-.5c.8-.1 2.6-.7 2.6-.7 2.5-.7 6.8-1.9 7.3-1.9s2.1.4 3 .7c.1 0 .2.1.3.1l.2-.8c-.1 0-.3-.1-.5-.2-.8-.2-2.3-.7-3-.7-.6 0-4.2 1-6.2 1.6l-3-2.1c-.1 0-1.4-.9-2.9.2-.5-.1-1.3 0-2.1.6-.5-.1-1.2 0-2 .6-.4-.2-1-.5-1.6-.3-.4.1-.8.3-1.1.7-.8 1.2.3 2.4.9 2.8l9.2 5.8s.7.4 1.6.4c.6 0 1.5-.3 1.7-.4l4.8-2s.4-.2.8-.2c.3 0 .5.1.5.1l2.5.8.3-.8-.3-.1zm-10.4-6.8 2.5 1.7c-.1 0-.3.1-.4.1 0 0-.3.1-.7.2l-2.9-2.1c.8-.3 1.4.1 1.5.1zm-2.1.6 2.5 1.8c-.3.1-.6.2-.9.2-.1 0-.2 0-.2.1l-2.9-2.2c.9-.4 1.5 0 1.5.1zm-2 .5 2.6 1.9c-.1.1-.3.2-.3.4-.1.1-.1.3-.2.4l-3.9-2.6c1-.6 1.8-.1 1.8-.1z" fill="#303f9f"/></svg>