<svg enable-background="new 0 0 48 48" viewBox="0 0 48 48" xmlns="http://www.w3.org/2000/svg"><path d="m6 6h17v17h-17z" fill="#388e3c"/><g fill="#fff"><path d="m12.4 13.3h8.5v2.4h-8.5z"/><path d="m8.1 13.3h2.1v2.4h-2.1z"/><path d="m12.4 8.4h8.5v2.4h-8.5z"/><path d="m8.1 8.4h2.1v2.4h-2.1z"/><path d="m12.4 18.1h8.5v2.4h-8.5z"/><path d="m8.1 18.1h2.1v2.4h-2.1z"/></g><path d="m25 25h17v17h-17z" fill="#388e3c"/><path d="m31.4 32.3h8.5v2.4h-8.5z" fill="#fff"/><path d="m27.1 32.3h2.1v2.4h-2.1z" fill="#fff"/><path d="m31.4 27.4h8.5v2.4h-8.5z" fill="#fff"/><path d="m27.1 27.4h2.1v2.4h-2.1z" fill="#fff"/><path d="m31.4 37.1h8.5v2.4h-8.5z" fill="#fff"/><path d="m27.1 37.1h2.1v2.4h-2.1z" fill="#fff"/><path d="m29.4 11v-3l-4.4 5 4.4 5v-3s6.6 0 6.6 8h4c0-12-10.6-12-10.6-12z" fill="#1c75bc"/><path d="m18.6 37v3l4.4-5-4.4-5v3s-6.6 0-6.6-8h-4c0 12 10.6 12 10.6 12z" fill="#f15a29"/></svg>